# xmcd CD database file
#
# Track frame offsets:
#	150
#	16066
#	30989
#	45250
#	58020
#	72160
#	90273
#	95894
#	113960
#	131948
#	148888
#	165348
#
# Disc length: 2352 seconds
#
# Revision: 0
# Processed by: cddbd v1.5.2PL0 Copyright (c) Steve Scherf et al.
# Submitted via: CDex 1.79
#
DISCID=99092e0c
DTITLE=Lyn Bowtell - Heart Of Sorrow
DYEAR=2014
DGENRE=Country
TTITLE0=Used To You
TTITLE1=Selfish Heart
TTITLE2=Old Habits
TTITLE3=Happy
TTITLE4=Heart Of Sorrow
TTITLE5=Keep Me
TTITLE6=Beat Friend
TTITLE7=Raging Love
TTITLE8=Foolish Lovers
TTITLE9=Lyn Bowtell And Kevin Bennett - How Long
TTITLE10=The Willow Tree
TTITLE11=I Won't Let You
EXTD=YEAR: 2014
EXTT0=
EXTT1=
EXTT2=
EXTT3=
EXTT4=
EXTT5=
EXTT6=
EXTT7=
EXTT8=
EXTT9=
EXTT10=
EXTT11=
PLAYORDER=
